<svg width="364" height="291" viewBox="0 0 364 291" fill="none" xmlns="http://www.w3.org/2000/svg">
<g clip-path="url(#clip0_1_388)">
<path d="M83.5214 288.809H280.332C282.81 288.809 284.819 286.8 284.819 284.323V5.82569C284.819 3.34785 282.81 1.33917 280.332 1.33917H83.5214C81.0436 1.33917 79.0349 3.34785 79.0349 5.82569V284.323C79.0349 286.8 81.0436 288.809 83.5214 288.809Z" fill="#FEFDF9"/>
<path d="M285.658 289.648H78.1957V0.5H285.658V289.648ZM79.8741 287.97H283.98V2.1784H79.8741V287.97Z" fill="#E6E6E6"/>
<path d="M239.035 46.8203C239.833 46.8203 240.481 47.4677 240.481 48.2662V51.1581C240.481 51.9567 239.833 52.6041 239.035 52.6041H124.82C124.021 52.6041 123.374 51.9567 123.374 51.1581V48.2662C123.374 47.4677 124.021 46.8203 124.82 46.8203H239.035Z" fill="#E6E6E6"/>
<path d="M239.035 60.5546C239.833 60.5546 240.481 61.202 240.481 62.0006V64.8924C240.481 65.691 239.833 66.3384 239.035 66.3384H124.82C124.021 66.3384 123.374 65.691 123.374 64.8924V62.0006C123.374 61.202 124.021 60.5546 124.82 60.5546H239.035Z" fill="#E6E6E6"/>
<path d="M239.035 74.2898C239.833 74.2898 240.481 74.9371 240.481 75.7357V78.6276C240.481 79.4262 239.833 80.0735 239.035 80.0735H124.82C124.021 80.0735 123.374 79.4262 123.374 78.6276V75.7366C123.374 74.938 124.021 74.2906 124.82 74.2906L239.035 74.2898Z" fill="#68E570"/>
<path d="M161.2 144.933C163.336 143.555 163.786 140.608 162.292 138.552L155.293 128.922C153.659 126.67 150.509 126.17 148.257 127.804C148.057 127.949 147.869 128.109 147.693 128.281C135.842 134.616 129.463 143.868 136.556 154.805C136.556 156.631 136.689 158.455 136.954 160.262C137.069 161.046 137.333 161.813 137.781 162.467C139.109 164.41 141.453 165.123 143.515 164.451L154.961 160.732C157.393 159.941 158.71 157.287 157.811 154.893C156.651 151.799 157.129 147.559 161.2 144.933Z" fill="#F2F2F2"/>
<path d="M188.366 173.34C185.073 173.015 182.262 175.728 182.262 179.038V188.912C182.262 189.167 182.281 189.423 182.32 189.676C182.743 192.427 185.317 194.314 188.068 193.891C204.11 195.868 215.071 188.893 215.731 173.588C215.836 173.373 215.926 173.151 215.999 172.924C216.854 170.279 215.403 167.442 212.759 166.587L203.176 163.473C199.869 162.399 196.433 164.546 195.855 167.974C195.332 171.07 193.288 173.826 188.366 173.34Z" fill="#E6E6E6"/>
<path d="M129.117 182.994C132.443 202.738 149.767 210.228 167.835 211.412C168.188 211.467 168.546 211.494 168.904 211.494C172.801 211.496 175.961 208.339 175.963 204.442V187.932C175.963 183.313 172.178 179.717 167.56 179.67C163.096 179.625 160.186 177.512 158.991 173.634C157.625 169.203 152.757 166.867 148.348 168.3L133.277 173.197C131.325 173.831 129.745 175.282 128.949 177.174C128.157 179.046 128.218 181.171 129.117 182.994Z" fill="#272635"/>
<path d="M221.96 114.725C219.179 112.001 214.716 112.047 211.992 114.828C211.749 115.076 211.525 115.341 211.322 115.621L197.931 134.052C196.219 136.409 197.198 139.693 199.874 140.843C206.143 143.539 205.484 149.589 203.443 153.292C202.443 155.107 203.268 157.378 205.239 158.018L227.804 165.35C231.516 166.549 235.497 164.511 236.696 160.799C236.817 160.425 236.906 160.042 236.963 159.653C237.351 157.07 237.545 154.461 237.545 151.849C241.362 137.614 236.08 124.196 221.96 114.725Z" fill="#68E570"/>
<path d="M183.209 136.096C185.71 137.504 188.864 136.823 190.551 134.502L195.037 128.328C195.908 127.13 196.21 125.612 195.864 124.172C195.53 122.759 194.593 121.564 193.3 120.902C182.744 111.364 170.249 110.778 159.654 120.853C158.323 121.525 157.353 122.748 157.003 124.198C156.657 125.628 156.957 127.137 157.822 128.326L163.065 135.541C164.865 138.019 168.353 138.668 170.835 136.872C174.44 134.261 179.677 134.108 183.209 136.096Z" fill="#E6E6E6"/>
<path d="M124.107 260.477C124.509 258.772 126.401 258.211 127.948 258.276C128.925 258.342 129.894 258.495 130.844 258.734C131.837 258.956 132.822 259.22 133.801 259.498C135.597 260.01 137.373 260.63 139.199 261.03C140.73 261.449 142.342 261.473 143.885 261.099C145.369 260.691 146.537 259.545 146.973 258.069C147.416 256.659 146.778 255.135 145.463 254.461C144.245 253.79 142.714 254.233 142.042 255.45C142.033 255.468 142.023 255.486 142.013 255.505C141.449 257.007 141.892 258.701 143.119 259.735C143.747 260.325 144.436 260.849 145.174 261.296C145.922 261.806 146.755 262.179 147.634 262.398C149.129 262.794 150.709 262.177 151.54 260.873C151.705 260.561 151.805 260.218 151.832 259.866C151.876 259.387 151.127 259.389 151.083 259.866C150.958 261.239 149.35 261.88 148.146 261.731C147.335 261.596 146.56 261.295 145.87 260.847C145.205 260.459 144.574 260.014 143.985 259.517C142.965 258.634 142.009 257.182 142.694 255.805C143.227 254.92 144.376 254.635 145.261 255.168C145.38 255.239 145.49 255.323 145.589 255.418C146.66 256.294 146.469 257.883 145.763 258.923C144.915 260.01 143.605 260.634 142.227 260.609C140.774 260.612 139.33 260.385 137.947 259.938C136.223 259.449 134.516 258.901 132.784 258.439C131.8 258.177 130.809 257.942 129.808 257.758C128.861 257.549 127.889 257.482 126.922 257.558C125.29 257.635 123.879 258.719 123.382 260.275C123.274 260.746 123.996 260.946 124.107 260.477Z" fill="#272635"/>
<path d="M153.745 240.965C153.971 240.965 154.154 241.612 154.154 242.411V245.302C154.154 246.101 153.971 246.748 153.745 246.748H121.463C121.237 246.748 121.054 246.101 121.054 245.302V242.411C121.054 241.612 121.237 240.965 121.463 240.965H153.745Z" fill="#E6E6E6"/>
<path d="M240.072 240.965C240.298 240.965 240.481 241.612 240.481 242.411V245.302C240.481 246.101 240.298 246.748 240.072 246.748H207.79C207.564 246.748 207.381 246.101 207.381 245.302V242.411C207.381 241.612 207.564 240.965 207.79 240.965H240.072Z" fill="#E6E6E6"/>
<path d="M225.698 257.253L219.29 259.372L216.086 260.431C215.102 260.851 214.037 261.047 212.968 261.004C212.178 260.951 211.485 260.46 211.173 259.732C211.037 259.003 211.35 258.263 211.969 257.853C213.498 256.69 215.431 257.874 216.516 259.079C217.841 260.552 218.591 262.455 219.834 263.997C220.94 265.382 222.343 266.5 223.939 267.27C227.129 268.852 230.934 268.527 233.808 266.427C237.186 263.821 237.531 259.305 237.549 255.364C237.535 254.986 237.218 254.69 236.839 254.703C236.48 254.716 236.191 255.005 236.178 255.364C236.162 258.935 235.959 263.313 232.703 265.547C229.584 267.688 225.486 267.12 222.613 264.839C221.133 263.521 219.902 261.948 218.978 260.195C217.952 258.516 216.679 256.896 214.749 256.245C213.043 255.625 211.136 256.291 210.186 257.839C209.369 259.216 209.822 260.995 211.199 261.813C211.305 261.876 211.416 261.932 211.529 261.982C213.767 263.048 216.328 261.799 218.482 261.086L226.065 258.58C226.898 258.305 226.542 256.981 225.701 257.259L225.698 257.253Z" fill="#68E570"/>
<path d="M332.603 128.165H240.872V129.844H332.603V128.165Z" fill="#272635"/>
<path d="M351.065 139.89C344.587 139.89 339.316 134.619 339.316 128.141C339.316 121.662 344.587 116.392 351.065 116.392C357.543 116.392 362.814 121.662 362.814 128.141C362.814 134.619 357.543 139.89 351.065 139.89ZM351.065 118.07C345.512 118.07 340.995 122.588 340.995 128.141C340.995 133.694 345.512 138.211 351.065 138.211C356.618 138.211 361.135 133.694 361.135 128.141C361.135 122.588 356.618 118.07 351.065 118.07Z" fill="#272635"/>
<path d="M351.065 134.015C354.309 134.015 356.939 131.385 356.939 128.141C356.939 124.897 354.309 122.266 351.065 122.266C347.821 122.266 345.191 124.897 345.191 128.141C345.191 131.385 347.821 134.015 351.065 134.015Z" fill="#68E570"/>
<path d="M123.061 190.266H31.3303V191.945H123.061V190.266Z" fill="#272635"/>
<path d="M1.11914 190.242C1.11914 183.763 6.38953 178.493 12.8679 178.493C19.3463 178.493 24.6167 183.763 24.6167 190.242C24.6167 196.72 19.3463 201.99 12.8679 201.99C6.38953 201.99 1.11914 196.72 1.11914 190.242ZM2.79754 190.242C2.79754 195.794 7.31519 200.312 12.8679 200.312C18.4206 200.312 22.9383 195.794 22.9383 190.242C22.9383 184.689 18.4206 180.171 12.8679 180.171C7.31519 180.171 2.79754 184.689 2.79754 190.242Z" fill="#272635"/>
<path d="M12.868 196.116C16.1124 196.116 18.7424 193.486 18.7424 190.242C18.7424 186.997 16.1124 184.367 12.868 184.367C9.62371 184.367 6.99365 186.997 6.99365 190.242C6.99365 193.486 9.62371 196.116 12.868 196.116Z" fill="#68E570"/>
</g>
<defs>
<clipPath id="clip0_1_388">
<rect width="364" height="289.966" fill="white" transform="translate(0 0.5)"/>
</clipPath>
</defs>
</svg>
